<svg width="2187" height="1924" viewBox="0 0 2187 1924" fill="none" xmlns="http://www.w3.org/2000/svg">
<path fill-rule="evenodd" clip-rule="evenodd" d="M130.036 1082.71C127.731 1087.04 129.119 1088.1 128.295 1093.34C127.817 1096.36 126.502 1101.61 125.208 1105.08C122.548 1112.22 117.711 1121.2 113.131 1128.46C88.5664 1167.38 70.6257 1201.94 110.918 1244.86C122.05 1256.71 124.7 1256.03 137.223 1256.07C150.695 1256.12 149.623 1256.98 160.637 1244.16C167.152 1236.58 172.116 1229.04 176.534 1220.84C185.165 1204.84 187.508 1188.01 186.454 1173.95C184.814 1152.02 161.569 1098.41 130.036 1082.71ZM128.915 1278.89C124.312 1294.91 114.848 1417.33 117.442 1429.33C124.715 1430.59 147.763 1430.78 153.363 1428.94C151.542 1412.3 152.052 1374.34 150.576 1353.72C149.523 1338.98 146.646 1292.08 143.381 1278.07L128.915 1278.89ZM114.757 1491.4C113.828 1519.04 113.062 1505.25 114.903 1549.33C115.185 1556.14 114.618 1561.93 114.836 1568.9L125.554 1817.45C126.303 1824.84 126.556 1829.73 127.116 1837.01C127.416 1840.88 127.915 1850.22 129.049 1854.84C130.692 1848.67 131.164 1843.29 131.794 1836.1L139.724 1740.26C140.726 1726.9 140.847 1715.02 142.037 1702.13C147.278 1641.02 153.397 1579.46 153.555 1518.15C153.751 1485.43 152.568 1471.05 152.961 1452.72C147.914 1451.62 120.727 1451.32 116.057 1452.67L114.757 1491.4ZM104.407 1271.37C-0.367767 1168.57 121.904 1123.32 100.967 1073.67C97.1572 1064.63 85.3757 1052 84.2008 1045.41C89.8962 1045.58 94.811 1047.35 101.495 1048.06C108.409 1048.79 113.483 1049.91 120.223 1052.3C163.235 1067.55 188.751 1104.16 203.165 1139.82C219.941 1181.34 213.599 1228.84 167.501 1270.96C171.758 1287.54 171.866 1307.53 173.83 1324.54L176.779 1378.36C178.99 1425.88 179.218 1431.53 179.132 1442.63C178.629 1509.88 180.434 1483.78 178.849 1548.22L174.295 1603.12C174.199 1625.96 162.331 1794.85 158.624 1819.63C155.27 1842.07 154.074 1920.56 130.633 1923.79C109.252 1926.75 107.139 1885.1 106.031 1876.03L94.5682 1712.57C90.1959 1653.5 91.4619 1582.87 89.1282 1522.75C89.1749 1485.15 89.1885 1512.82 89.96 1488.3C90.2403 1479.51 89.7595 1470.72 90.1822 1461.9C90.6312 1452.54 91.3297 1443.98 91.6089 1434.5L94.3255 1367.04C95.963 1341.6 100.229 1293.32 104.407 1271.37Z" fill="#2B2A29"/>
<path d="M615.222 499.094L187.438 504.277V761.243C187.438 783.173 187.238 801.712 186.64 817.461C186.043 833.011 185.046 845.768 183.451 855.936L269.964 851.351V903.781H0.65625V864.109C23.1812 863.312 40.1259 859.325 51.4881 851.749C62.6509 844.374 70.6242 834.406 75.409 821.448C79.9933 808.689 82.5846 793.339 82.784 775.597C82.9834 757.854 82.9834 738.518 82.9834 717.585V200.662C82.9834 184.316 83.1829 168.966 83.7811 154.413C84.3794 139.661 85.5747 126.503 87.1701 114.342L0.65625 119.526V66.4976H269.964V106.169C247.24 106.967 230.297 111.153 219.133 118.729C207.77 126.304 199.797 136.471 195.212 149.429C190.428 162.187 188.036 177.338 187.837 194.881C187.637 212.424 187.438 231.762 187.438 253.292V451.648H615.222V200.662C615.222 167.172 616.419 138.464 618.81 114.342L532.297 119.526V66.4976H801.606V106.169C779.279 106.967 762.535 111.153 750.974 118.729C739.61 126.304 731.438 136.471 726.853 149.429C722.068 162.187 719.676 177.338 719.477 194.881C719.278 212.424 719.278 231.961 719.278 253.292V761.243C719.278 804.104 718.082 835.602 715.689 855.936L801.606 851.351V903.781H532.297V864.109C554.823 863.312 571.966 859.325 583.328 851.749C594.889 844.374 602.863 834.406 607.648 821.448C612.232 808.689 614.823 793.339 615.023 775.597C615.222 757.854 615.222 738.518 615.222 717.386V499.094ZM1190.32 332.036C1158.82 332.036 1131.91 339.014 1109.39 352.968C1087.06 367.122 1068.72 385.662 1054.17 409.186C1039.82 432.51 1029.25 459.422 1022.47 489.724C1015.5 520.026 1012.11 551.524 1012.11 584.217C1012.11 621.298 1015.9 657.181 1023.47 692.267C1031.24 727.353 1042.81 758.453 1058.36 785.365C1073.9 812.477 1093.44 834.206 1116.96 850.554C1140.68 866.9 1168.19 875.074 1199.69 875.074C1231.18 875.074 1257.9 867.897 1279.42 853.743C1301.15 839.59 1318.69 820.85 1332.05 797.326C1345.4 774.002 1355.17 747.488 1360.95 717.386C1366.73 687.483 1369.72 656.782 1369.72 625.086C1369.72 589.401 1366.34 553.917 1359.76 518.83C1353.18 483.943 1342.61 452.446 1328.26 424.935C1313.91 397.224 1295.17 374.897 1272.45 357.753C1249.72 340.608 1222.21 332.036 1190.32 332.036ZM1190.32 286.583C1232.38 286.583 1271.85 294.359 1308.33 309.709C1345.01 325.058 1376.7 346.19 1403.81 373.302C1430.92 400.414 1452.25 432.51 1468.2 469.59C1483.95 506.868 1491.72 546.939 1491.72 590.198C1491.72 636.449 1484.15 679.907 1468.8 720.376C1453.25 760.845 1432.12 796.13 1405.01 826.033C1377.9 855.936 1346 879.659 1309.33 897.002C1272.45 914.346 1232.78 922.919 1190.32 922.919C1148.26 922.919 1108.99 915.343 1072.71 900.392C1036.23 885.44 1004.53 864.508 977.423 837.595C950.313 810.882 928.983 778.786 913.435 741.706C897.887 704.428 890.113 663.76 890.113 619.304C890.113 572.256 897.887 528.399 913.236 487.731C928.585 447.062 949.714 411.777 976.625 382.074C1003.54 352.171 1035.23 328.846 1071.71 311.902C1108.39 294.957 1147.86 286.583 1190.32 286.583ZM1631.66 156.207C1631.66 143.847 1631.66 131.686 1631.86 120.124C1632.06 108.362 1633.25 94.6069 1635.05 78.6583L1550.33 83.244V33.0072C1576.44 33.0072 1598.17 32.2095 1615.51 30.4157C1632.85 28.6209 1647.01 26.2289 1657.97 23.0391C1668.74 19.8494 1677.31 16.4602 1683.49 12.6722C1689.87 9.08477 1695.25 5.09732 1699.83 0.712158H1734.32V357.753C1756.64 335.625 1782.96 318.281 1813.66 305.522C1844.16 292.963 1878.24 286.583 1916.12 286.583C1954.19 286.583 1989.87 293.76 2022.76 307.914C2055.66 322.069 2084.36 342.403 2108.68 368.518C2133 394.832 2152.14 426.729 2165.89 464.407C2179.84 501.885 2186.62 543.949 2186.62 590.796C2186.62 641.631 2178.05 687.682 2160.71 728.55C2143.36 769.417 2120.24 804.303 2091.74 833.011C2063.03 861.717 2029.94 884.045 1992.46 899.594C1954.79 915.144 1915.92 922.919 1875.85 922.919C1862.1 922.919 1847.74 921.922 1832.59 919.729C1817.44 917.536 1801.89 913.749 1786.35 907.968C1770.8 902.385 1755.65 894.81 1740.9 885.639C1725.95 876.27 1712.39 864.309 1699.83 849.955L1671.33 903.781H1629.27L1631.66 156.207ZM1879.24 345.194C1852.93 345.194 1826.81 351.374 1801.1 363.733C1775.38 375.893 1753.06 392.44 1734.32 413.173V716.389C1734.32 748.484 1738.31 774.599 1746.08 795.134C1753.85 815.667 1764.42 831.814 1777.58 843.775C1790.93 855.737 1806.08 863.91 1823.02 868.296C1839.97 872.881 1857.51 875.074 1875.85 875.074C1904.56 875.074 1930.67 868.894 1953.79 856.534C1977.11 844.374 1996.65 827.03 2012.8 804.503C2029.14 782.176 2041.5 755.263 2050.27 723.964C2059.04 692.865 2063.43 658.178 2063.43 620.3C2063.43 580.231 2059.64 543.151 2052.07 509.461C2044.49 475.571 2033.13 446.665 2017.78 422.543C2002.63 398.222 1983.49 379.283 1960.57 365.727C1937.65 351.971 1910.54 345.194 1879.24 345.194Z" fill="#2B2A29" stroke="#2B2A29" stroke-width="0.0762" stroke-miterlimit="22.9256"/>
<path d="M464.201 1850.85C466.593 1854.24 469.782 1857.43 473.768 1860.02C477.955 1862.61 482.341 1864.61 486.925 1866.2C491.709 1867.8 496.095 1868.79 500.48 1869.19C504.667 1869.59 508.255 1869.79 511.444 1869.79C523.206 1869.39 533.371 1866.6 542.342 1861.62C551.312 1856.43 558.688 1848.46 564.469 1837.7C570.449 1826.73 574.636 1812.78 577.626 1795.43C580.616 1778.29 582.011 1757.56 582.011 1733.04V1109.06L460.014 1114.24V1061.22H778.161V1100.89C758.427 1100.89 742.48 1103.88 730.32 1109.86C718.359 1116.04 708.99 1124.41 702.413 1134.98C695.635 1145.74 691.249 1158.3 689.256 1172.65C687.063 1187.01 686.066 1202.56 686.066 1219.3V1606.45C686.066 1662.46 682.278 1710.31 674.903 1749.78C667.527 1789.25 655.966 1821.55 640.417 1846.47C624.869 1871.39 604.735 1889.33 580.018 1900.69C555.299 1912.05 525.797 1917.64 491.51 1917.64C474.965 1917.64 458.818 1915.64 443.669 1911.86C428.519 1907.87 415.163 1902.29 403.402 1894.71C391.84 1887.34 382.471 1878.36 375.693 1867.8C368.916 1857.23 365.527 1845.27 365.527 1832.11C365.527 1824.14 366.523 1816.76 368.717 1809.39C370.909 1802.21 374.099 1795.63 378.285 1789.85C382.67 1783.87 387.256 1779.48 392.438 1776.69C397.421 1773.7 402.205 1771.71 406.392 1770.71C410.778 1769.72 415.761 1769.32 421.542 1769.32C428.519 1769.32 435.495 1770.91 442.074 1774.1C448.652 1777.29 454.034 1781.48 458.021 1786.86C462.207 1792.24 465.197 1798.22 467.191 1804.6C469.184 1811.18 469.982 1817.56 469.982 1823.34C469.982 1827.33 469.583 1831.91 468.586 1836.7C467.59 1841.68 466.194 1846.47 464.201 1850.85ZM1157.51 1326.75C1126.01 1326.75 1099.1 1333.73 1076.57 1347.69C1054.25 1361.84 1035.91 1380.38 1021.36 1403.9C1007 1427.23 996.439 1454.14 989.662 1484.44C982.684 1514.74 979.297 1546.24 979.297 1578.94C979.297 1616.02 983.083 1651.9 990.659 1686.98C998.432 1722.07 1009.99 1753.17 1025.54 1780.08C1041.09 1807.2 1060.63 1828.92 1084.15 1845.27C1107.87 1861.62 1135.38 1869.79 1166.87 1869.79C1198.37 1869.79 1225.08 1862.61 1246.61 1848.46C1268.34 1834.31 1285.88 1815.57 1299.24 1792.04C1312.59 1768.72 1322.36 1742.21 1328.14 1712.1C1333.92 1682.2 1336.91 1651.5 1336.91 1619.8C1336.91 1584.12 1333.52 1548.63 1326.95 1513.55C1320.37 1478.66 1309.8 1447.16 1295.45 1419.65C1281.1 1391.94 1262.36 1369.62 1239.63 1352.47C1216.91 1335.33 1189.4 1326.75 1157.51 1326.75ZM1157.51 1281.3C1199.57 1281.3 1239.04 1289.08 1275.52 1304.43C1312.19 1319.78 1343.89 1340.91 1371 1368.02C1398.11 1395.13 1419.44 1427.23 1435.39 1464.31C1451.13 1501.59 1458.91 1541.66 1458.91 1584.92C1458.91 1631.17 1451.33 1674.62 1435.98 1715.09C1420.44 1755.56 1399.31 1790.85 1372.2 1820.75C1345.09 1850.65 1313.19 1874.38 1276.51 1891.72C1239.63 1909.06 1199.97 1917.64 1157.51 1917.64C1115.45 1917.64 1076.18 1910.06 1039.9 1895.11C1003.42 1880.16 971.721 1859.23 944.611 1832.31C917.5 1805.6 896.171 1773.5 880.623 1736.42C865.074 1699.15 857.3 1658.48 857.3 1614.02C857.3 1566.97 865.074 1523.12 880.423 1482.45C895.773 1441.78 916.902 1406.49 943.813 1376.79C970.724 1346.89 1002.42 1323.56 1038.9 1306.62C1075.58 1289.67 1115.05 1281.3 1157.51 1281.3ZM1598.85 1150.92C1598.85 1138.56 1598.85 1126.4 1599.04 1114.84C1599.24 1103.08 1600.44 1089.32 1602.23 1073.38L1517.52 1077.96V1027.73C1543.63 1027.73 1565.36 1026.93 1582.7 1025.13C1600.04 1023.34 1614.19 1020.95 1625.16 1017.76C1635.92 1014.57 1644.49 1011.18 1650.67 1007.39C1657.05 1003.8 1662.44 999.815 1667.02 995.43H1701.51V1352.47C1723.83 1330.34 1750.15 1313 1780.84 1300.24C1811.34 1287.68 1845.43 1281.3 1883.3 1281.3C1921.38 1281.3 1957.06 1288.48 1989.95 1302.63C2022.84 1316.79 2051.55 1337.12 2075.87 1363.24C2100.19 1389.55 2119.32 1421.45 2133.08 1459.12C2147.03 1496.6 2153.81 1538.67 2153.81 1585.51C2153.81 1636.35 2145.24 1682.4 2127.9 1723.27C2110.55 1764.13 2087.43 1799.02 2058.92 1827.73C2030.22 1856.43 1997.13 1878.76 1959.65 1894.31C1921.98 1909.86 1883.11 1917.64 1843.04 1917.64C1829.28 1917.64 1814.93 1916.64 1799.78 1914.45C1784.63 1912.25 1769.08 1908.47 1753.53 1902.69C1737.99 1897.1 1722.84 1889.53 1708.08 1880.36C1693.13 1870.99 1679.58 1859.03 1667.02 1844.67L1638.51 1898.5H1596.45L1598.85 1150.92ZM1846.43 1339.91C1820.11 1339.91 1794 1346.09 1768.28 1358.45C1742.57 1370.61 1720.24 1387.16 1701.51 1407.89V1711.11C1701.51 1743.2 1705.49 1769.32 1713.27 1789.85C1721.04 1810.38 1731.61 1826.53 1744.76 1838.49C1758.12 1850.45 1773.27 1858.63 1790.21 1863.01C1807.16 1867.6 1824.7 1869.79 1843.04 1869.79C1871.74 1869.79 1897.86 1863.61 1920.98 1851.25C1944.3 1839.09 1963.84 1821.75 1979.98 1799.22C1996.33 1776.89 2008.69 1749.98 2017.46 1718.68C2026.23 1687.58 2030.62 1652.9 2030.62 1615.02C2030.62 1574.95 2026.83 1537.87 2019.25 1504.18C2011.68 1470.29 2000.32 1441.38 1984.97 1417.26C1969.82 1392.94 1950.68 1374 1927.76 1360.44C1904.83 1346.69 1877.72 1339.91 1846.43 1339.91Z" fill="#2B2A29" stroke="#2B2A29" stroke-width="0.0762" stroke-miterlimit="22.9256"/>
</svg>
