<svg width="4433" height="350" viewBox="0 0 4433 350" fill="none" xmlns="http://www.w3.org/2000/svg">
<path d="M474 111H570V135H498V207H570V231H498V255H474V111ZM570 135H594V207H570V135ZM641.945 111H713.945V135H641.945V111ZM617.945 135H641.945V207H713.945V135H737.945V255H713.945V231H641.945V255H617.945V135ZM857.891 135H785.891V111H857.891V135ZM761.891 135H785.891V159H761.891V135ZM881.891 159H857.891V135H881.891V159ZM857.891 183H809.891V159H857.891V183ZM857.891 183H881.891V231H857.891V183ZM785.891 207V231H761.891V207H785.891ZM857.891 255H785.891V231H857.891V255ZM905.836 111H1001.84V135H929.836V207H1001.84V231H929.836V255H905.836V111ZM1001.84 135H1025.84V207H1001.84V135ZM1073.78 111H1145.78V135H1073.78V111ZM1049.78 135H1073.78V207H1145.78V135H1169.78V255H1145.78V231H1073.78V255H1049.78V135ZM1289.73 255H1193.73V111H1289.73V135H1217.73V159H1289.73V183H1217.73V231H1289.73V255ZM1313.73 183V231H1289.73V183H1313.73ZM1361.67 111H1433.67V135H1361.67V111ZM1337.67 135H1361.67V231H1337.67V135ZM1433.67 135H1457.67V231H1433.67V135ZM1361.67 231H1433.67V255H1361.67V231ZM1481.62 111H1601.62V135H1553.62V255H1529.62V135H1481.62V111ZM1649.56 111H1721.56V135H1649.56V111ZM1625.56 135H1649.56V207H1721.56V135H1745.56V255H1721.56V231H1649.56V255H1625.56V135ZM1769.51 111H1793.51V159H1865.51V111H1889.51V255H1865.51V183H1793.51V255H1769.51V111ZM1937.45 111H2009.45V135H1937.45V111ZM1913.45 135H1937.45V231H1913.45V135ZM2009.45 135H2033.45V231H2009.45V135ZM1937.45 231H2009.45V255H1937.45V231ZM2129.47 111H2225.47V135H2153.47V159H2225.47V183H2153.47V231H2225.47V255H2129.47V111ZM2225.47 135H2249.47V159H2225.47V135ZM2225.47 183H2249.47V231H2225.47V183ZM2369.48 111H2441.48V135H2369.48V111ZM2345.48 135H2369.48V231H2345.48V135ZM2441.48 135H2465.48V159H2441.48V135ZM2441.48 207H2465.48V231H2441.48V207ZM2369.48 231H2441.48V255H2369.48V231ZM2489.43 111H2609.43V135H2561.43V255H2537.43V135H2489.43V111ZM2657.38 159H2633.38V111H2657.38V159ZM2753.38 111V231H2729.38V183H2657.38V159H2729.38V111H2753.38ZM2657.38 207V231H2633.38V207H2657.38ZM2729.38 255H2657.38V231H2729.38V255ZM2921.32 231V255H2777.32V231H2801.32V135H2825.32V231H2873.32V135H2825.32V111H2897.32V231H2921.32ZM2993.29 207V231H2969.29V255H2945.29V111H2969.29V207H2993.29ZM3065.29 111V255H3041.29V183H3017.29V159H3041.29V111H3065.29ZM2993.29 183H3017.29V207H2993.29V183ZM3137.23 207V231H3113.23V255H3089.23V111H3113.23V207H3137.23ZM3209.23 111V255H3185.23V183H3161.23V159H3185.23V111H3209.23ZM3137.23 183H3161.23V207H3137.23V183ZM3305.25 111H3329.25V159H3401.25V111H3425.25V255H3401.25V183H3329.25V255H3305.25V111ZM3473.2 111H3545.2V135H3473.2V111ZM3449.2 135H3473.2V207H3545.2V135H3569.2V255H3545.2V231H3473.2V255H3449.2V135ZM3713.14 135H3617.14V255H3593.14V111H3713.14V135ZM3785.09 207V231H3761.09V255H3737.09V111H3761.09V207H3785.09ZM3857.09 111V255H3833.09V183H3809.09V159H3833.09V111H3857.09ZM3785.09 183H3809.09V207H3785.09V183ZM3977.03 255H3881.03V111H3977.03V135H3905.03V159H3977.03V183H3905.03V231H3977.03V255ZM4001.03 183V231H3977.03V183H4001.03ZM4072.98 207V231H4048.98V255H4024.98V111H4048.98V207H4072.98ZM4144.98 111V255H4120.98V183H4096.98V159H4120.98V111H4144.98ZM4072.98 183H4096.98V207H4072.98V183ZM4168.92 111H4192.92V159H4264.92V111H4288.92V255H4264.92V183H4192.92V255H4168.92V111ZM4336.87 111H4408.87V135H4336.87V111ZM4312.87 135H4336.87V207H4408.87V135H4432.87V255H4408.87V231H4336.87V255H4312.87V135Z" fill="#44B758"/>
<path d="M32 95.5001H0V254.5H32V286.5H64V318H95.5V350H254.5V318H286.5V286H318V254.5H350V95.5001H318.18V64H286.5V31.8165H254.5V0H95.5V31.8252H63.6388V63.6417H32V95.5001Z" fill="#44B758"/>
</svg>
