<svg width="1006" height="357" viewBox="0 0 1006 357" fill="none" xmlns="http://www.w3.org/2000/svg">
<path d="M22.776 179.773C18.6712 182.758 15.7797 186.525 13.6099 190.865C12.6985 192.687 10.2977 193.857 10.2977 196.064C10.2977 198.144 10.2977 200.223 10.2977 202.303C10.2977 212.256 10.991 222.663 10.991 232.806C10.991 240.128 7.86198 250.233 12.7241 256.068C14.1928 257.83 18.898 262.815 21.3895 262.961C26.0884 263.238 30.7144 263.655 35.5624 263.655C49.196 263.655 62.8297 263.655 76.4634 263.655C83.9994 263.655 91.2328 261.575 98.6855 261.575C106.144 261.575 113.603 261.575 121.062 261.575C129.2 261.575 137.234 262.268 145.44 262.268C153.571 262.268 161.41 263.655 169.588 263.655C178.971 263.655 187.594 263.693 196.779 265.734C205.838 267.748 215.397 267.121 224.662 267.121C234.83 267.121 244.937 266.907 255.01 266.428C263.332 266.031 271.676 266.763 279.928 265.388C292.284 263.328 305.731 264.087 318.249 264.348C324.084 264.469 330.248 265.855 336.119 266.389C342.95 267.01 350.105 266.428 356.955 266.428C363.725 266.428 370.464 267.121 377.174 267.121C381.985 267.121 386.513 268.294 391.424 267.66C401.969 266.299 412.815 266.677 423.197 265.08C428.383 264.282 434.319 264.348 439.566 264.348C444.618 264.348 449.589 263.655 454.663 263.655C459.777 263.655 464.804 265.041 469.914 265.041C475.691 265.041 481.468 265.041 487.245 265.041C494.625 265.041 502.273 265.734 509.428 265.734C514.153 265.734 518.877 265.734 523.601 265.734C528.558 265.734 533.141 264.348 538.159 264.348C549.867 264.348 561.575 264.348 573.283 264.348C578.071 264.348 583.029 263.989 587.803 264.386C591.803 264.72 595.138 265.734 599.203 265.734C604.881 265.734 609.857 266.428 615.494 266.428C617.681 266.428 618.347 265.041 620.693 265.041C622.818 265.041 624.776 265.734 626.624 265.734C633.657 265.734 640.459 269.201 647.383 269.201C651.288 269.201 659.223 267.809 662.287 265.426C663.856 264.206 666.436 264.348 668.334 264.348C670.907 264.348 673.009 263.655 675.459 263.655C678.635 263.655 682.738 259.071 682.738 256.029C682.738 253.814 683.63 252.878 684.086 250.83C684.507 248.933 684.124 246.536 684.124 244.591C684.124 239.112 683.641 233.918 683.431 228.454C683.241 223.502 682.045 218.593 682.045 213.395C682.045 210.969 682.045 208.542 682.045 206.116C682.045 203.265 680.812 201.258 680.658 198.49C680.431 194.406 679.553 189.79 676.884 186.359C674.087 182.763 669.254 182.625 665.407 181.005C659.291 178.43 652.465 180.232 646.15 180.466C639.601 180.709 632.397 180.67 625.892 181.853C615.68 183.709 605.928 184.626 595.544 184.626C591.333 184.626 587.122 184.626 582.912 184.626C578.694 184.626 574.757 183.003 570.78 182.584C565.385 182.016 559.6 181.258 554.181 181.159C547.824 181.044 541.592 179.773 535.309 179.773C521.527 179.773 507.956 181.159 494.177 181.159C481.684 181.159 469.123 181.853 456.588 181.853C452.699 181.853 448.809 181.853 444.919 181.853C439.743 181.853 434.957 179.773 429.745 179.773C421.527 179.773 413.519 180.309 405.404 181.121C400.474 181.614 394.968 181.741 390.038 181.853C387.711 181.906 385.211 181.538 382.913 181.891C381.149 182.163 379.505 183.188 377.713 183.239C370.254 183.452 362.65 184.626 355.145 184.626C346.081 184.626 337.018 184.626 327.954 184.626C318.878 184.626 309.802 184.626 300.726 184.626C294.466 184.626 287.826 184.566 281.739 183.085C276.632 181.843 270.94 182.643 265.717 182.546C261.438 182.467 256.518 182.29 252.237 181.814C247.5 181.288 243.255 179.08 238.373 179.08C235.247 179.08 232.547 177.693 229.361 177.693C223.276 177.693 217.191 177.693 211.105 177.693C171.663 177.693 132.215 177 92.947 177C77.1704 177 61.4713 177.693 45.8069 177.693C41.0684 177.693 35.9092 179.08 31.0563 179.08C26.2368 179.08 21.9399 182.546 17.2301 182.546" stroke="#DD9E5E" stroke-width="3" stroke-linecap="round"/>
<path d="M567.661 182.546C567.661 188.836 567.661 195.127 567.661 201.417C567.661 204.44 569.047 206.916 569.047 209.929C569.047 212.958 569.047 215.988 569.047 219.018C569.047 226.284 569.047 233.55 569.047 240.816C569.047 245.945 569.513 250.254 570.973 255.182C571.595 257.283 571.328 260.48 570.433 262.268" stroke="#DD9E5E" stroke-width="3" stroke-linecap="round"/>
<path d="M618.96 208.888C617.67 212.84 616.881 216.232 616.881 220.327C616.881 221.192 615.091 222.753 615.956 222.753C617.284 222.753 618.77 221.22 620 220.673C624.531 218.66 630.112 222.022 631.978 226.219C634.692 232.326 627.952 238.563 622.426 239.352C620.41 239.64 615.605 240.029 614.108 238.698C612.989 237.703 611.708 238.073 611.373 236.233C611.118 234.828 611.335 233.198 611.335 231.765" stroke="#DD9E5E" stroke-width="3" stroke-linecap="round"/>
<path d="M300.042 208.888C298.751 212.84 297.962 216.232 297.962 220.327C297.962 221.192 296.172 222.753 297.038 222.753C298.365 222.753 299.851 221.22 301.082 220.673C305.613 218.66 311.194 222.022 313.059 226.219C315.774 232.326 309.033 238.563 303.508 239.352C301.491 239.64 296.686 240.029 295.189 238.698C294.07 237.703 292.789 238.073 292.455 236.233C292.199 234.828 292.416 233.198 292.416 231.765" stroke="#DD9E5E" stroke-width="3" stroke-linecap="round"/>
<path d="M618.96 208.889C623.384 207.918 626.199 206.809 630.745 206.809C632.614 206.809 638.979 206.979 639.757 205.423" stroke="#DD9E5E" stroke-width="3" stroke-linecap="round"/>
<path d="M300.042 208.889C304.466 207.918 307.281 206.809 311.827 206.809C313.696 206.809 320.061 206.979 320.839 205.423" stroke="#DD9E5E" stroke-width="3" stroke-linecap="round"/>
<path d="M650.156 212.355C648.377 212.044 646.69 211.252 646.69 213.395C646.69 214.407 646.514 215.128 647.73 215.128C648.873 215.128 651.382 214.008 649.463 213.049" stroke="#DD9E5E" stroke-width="3" stroke-linecap="round"/>
<path d="M331.237 212.355C329.459 212.044 327.771 211.252 327.771 213.395C327.771 214.407 327.596 215.128 328.811 215.128C329.954 215.128 332.464 214.008 330.544 213.049" stroke="#DD9E5E" stroke-width="3" stroke-linecap="round"/>
<path d="M659.861 213.742C654.793 220.921 652.112 229.525 647.383 236.619" stroke="#DD9E5E" stroke-width="3" stroke-linecap="round"/>
<path d="M340.943 213.742C335.875 220.921 333.193 229.525 328.464 236.619" stroke="#DD9E5E" stroke-width="3" stroke-linecap="round"/>
<path d="M660.554 231.072C658.444 234.008 659.861 234.621 659.861 231.766C659.861 230.011 658.475 230.011 658.475 231.766" stroke="#DD9E5E" stroke-width="3" stroke-linecap="round"/>
<path d="M341.636 231.072C339.526 234.008 340.943 234.621 340.943 231.766C340.943 230.011 339.556 230.011 339.556 231.766" stroke="#DD9E5E" stroke-width="3" stroke-linecap="round"/>
<path d="M278.34 207.979C273.131 205.947 269.177 205.381 264.912 208.793C262.121 211.026 265.133 216.134 266.946 217.746C269.477 219.996 275.827 220.202 278.702 218.559C280.285 217.655 280.782 215.762 280.782 214.083C280.782 213.309 279.968 209.717 279.968 211.642C279.968 215.302 280.793 220.846 282.228 224.256C283.593 227.496 282.409 233.372 282.409 236.871C282.409 244.959 266.132 243.343 266.132 236.464" stroke="#DD9E5E" stroke-width="3" stroke-linecap="round"/>
<path d="M3.17845 16.1635C10.2402 13.4733 16.2062 15.2619 16.2062 23.4863C16.2062 27.1985 13.3926 30.6739 11.2676 33.4061C10.3612 34.5714 8.53025 35.0622 7.01014 35.2794C4.40254 35.6519 9.72184 35.2544 10.4161 34.9388C17.6504 31.6505 17.8129 41.3194 15.6101 45.2844C13.8967 48.3686 11.9305 48.3497 8.54281 48.3497C5.90002 48.3497 2.41211 48.9316 2.41211 45.2844" stroke="#DD9E5E" stroke-width="3" stroke-linecap="round"/>
<path d="M23.8696 33.0231C25.59 31.7198 29.367 28.5178 31.8736 29.234C33.7545 29.7714 33.1019 34.0263 34.0023 35.1518C36.0216 37.676 34.5984 45.7851 34.5984 49.1162" stroke="#DD9E5E" stroke-width="3" stroke-linecap="round"/>
<path d="M34.598 40.6855C31.3002 40.6855 18.7382 39.2662 22.7198 46.4331C23.9428 48.6346 27.2531 49.1153 29.5742 49.1153C32.4991 49.1153 33.7489 47.2408 36.1307 46.0499" stroke="#DD9E5E" stroke-width="3" stroke-linecap="round"/>
<path d="M44.5605 30.7239C44.5605 37.1599 46.8596 43.1512 46.8596 49.4566C46.8596 52.4084 46.8596 61.2639 46.8596 58.312" stroke="#DD9E5E" stroke-width="3" stroke-linecap="round"/>
<path d="M47.626 33.0229C48.5836 33.0229 55.985 32.1902 56.0557 33.9595C56.1749 36.9398 56.8221 39.5956 56.8221 42.6021C56.8221 45.8294 53.5849 45.6741 51.4577 46.4338C50.5044 46.7743 44.9443 47.0083 46.8597 46.0506" stroke="#DD9E5E" stroke-width="3" stroke-linecap="round"/>
<path d="M63.7191 30.7239C63.7191 36.4322 62.6756 43.6867 64.4854 49.116" stroke="#DD9E5E" stroke-width="3" stroke-linecap="round"/>
<path d="M66.7847 29.1907C68.0429 29.6015 79.8124 31.7714 79.8124 32.6392C79.8124 37.6204 79.8124 42.6016 79.8124 47.5828" stroke="#DD9E5E" stroke-width="3" stroke-linecap="round"/>
<path d="M83.6438 47.5837C86.7755 43.2777 87.4755 39.4173 87.4755 34.1728C87.4755 29.4546 90.222 30.7243 94.3725 30.7243C99.0048 30.7243 99.1755 31.1431 98.1616 35.7055C97.3359 39.4213 95.9052 42.8901 95.9052 46.8174" stroke="#DD9E5E" stroke-width="3" stroke-linecap="round"/>
<path d="M108.167 36.0888C111.464 31.8674 117.363 28.6763 117.363 36.8552C117.363 41.3064 118.129 45.9927 118.129 50.6492" stroke="#DD9E5E" stroke-width="3" stroke-linecap="round"/>
<path d="M117.363 42.2186C113.784 39.5078 111.437 38.0156 107.443 40.3453C105.759 41.3277 102.56 43.6921 103.739 46.0503C106.79 52.1528 114.394 46.2176 118.129 45.2839" stroke="#DD9E5E" stroke-width="3" stroke-linecap="round"/>
<path d="M123.776 30.7943C125.923 31.1521 129.301 30.8674 131.357 30.0014C133.049 29.2892 136.207 29.9023 138.047 29.9023" stroke="#DD9E5E" stroke-width="3" stroke-linecap="round"/>
<path d="M131.357 32.5793C131.357 36.3619 131.357 40.1444 131.357 43.927C131.357 45.8835 130.555 48.6345 133.141 48.6345" stroke="#DD9E5E" stroke-width="3" stroke-linecap="round"/>
<path d="M143.845 32.5793C142.362 37.212 143.399 43.2052 143.399 48.1886" stroke="#DD9E5E" stroke-width="3" stroke-linecap="round"/>
<path d="M143.845 39.7144C146.167 39.3428 148.675 38.8224 151.005 38.8224C152.513 38.8224 154.608 39.2284 155.886 38.3765" stroke="#DD9E5E" stroke-width="3" stroke-linecap="round"/>
<path d="M156.778 32.1326C156.778 35.1883 156.778 38.2441 156.778 41.2999C156.778 42.3488 156.778 43.3976 156.778 44.4465C156.778 45.7676 157.67 46.193 157.67 47.2958" stroke="#DD9E5E" stroke-width="3" stroke-linecap="round"/>
<path d="M164.806 29.9036C164.87 32.5758 166.144 34.6563 166.144 37.2374C166.144 39.1961 166.59 41.2065 166.59 43.0599C166.59 44.8302 165.998 49.6109 168.275 49.5266C171.916 49.3917 173.893 47.4883 173.255 43.9766C173.048 42.8416 171.928 41.3996 170.802 41.0778C169.924 40.827 166.978 40.7234 166.59 41.499" stroke="#DD9E5E" stroke-width="3" stroke-linecap="round"/>
<path d="M177.293 30.7947C177.293 33.9826 177.293 37.1705 177.293 40.3584C177.293 43.3738 178.185 46.1336 178.185 49.0798" stroke="#DD9E5E" stroke-width="3" stroke-linecap="round"/>
<path d="M184.875 31.2415C184.875 35.7372 184.955 39.649 185.742 43.9766C186.1 45.946 186.659 47.3601 186.659 49.5265" stroke="#DD9E5E" stroke-width="3" stroke-linecap="round"/>
<path d="M195.578 32.1326C194.405 34.9614 193.433 37.8331 192.209 40.6309C190.971 43.4598 187.997 45.7993 187.997 49.0797" stroke="#DD9E5E" stroke-width="3" stroke-linecap="round"/>
<path d="M195.578 33.4705C194.902 36.9345 195.931 40.4546 197.015 43.827C197.359 44.896 198.597 48.462 197.362 49.0797" stroke="#DD9E5E" stroke-width="3" stroke-linecap="round"/>
<path d="M187.551 24.9976C190.084 25.0593 192.559 25.4435 195.132 25.4435" stroke="#DD9E5E" stroke-width="3" stroke-linecap="round"/>
<path d="M239.284 24.5508C239.284 34.3634 239.73 63.7979 239.73 53.9853" stroke="#DD9E5E" stroke-width="3" stroke-linecap="round"/>
<path d="M239.284 31.6871C236.751 31.1929 234.011 30.6884 231.801 32.1331C230.111 33.2384 230.364 36.1332 230.364 37.9308C230.364 42.1336 234.179 43.7285 237.946 43.7285" stroke="#DD9E5E" stroke-width="3" stroke-linecap="round"/>
<path d="M241.96 32.1326C245.085 32.1326 245.932 32.761 247.535 35.2544C248.3 36.4442 249.714 39.0918 248.997 40.6061C248.157 42.3779 247.66 43.4708 245.726 44.174C243.554 44.9637 242.052 45.5119 239.73 45.5119" stroke="#DD9E5E" stroke-width="3" stroke-linecap="round"/>
<path d="M263.813 30.3492C259.473 31.1757 256.231 31.7492 256.231 36.8159C256.231 40.7945 257.858 42.7686 260.939 45.2895C262.071 46.2158 265.4 47.8231 266.935 47.7423C270.938 47.5316 270.474 42.7914 271.394 40.2598C272.471 37.2984 271.186 35.393 268.619 33.8179C266.873 32.7465 265.174 31.9733 263.614 30.6217C262.995 30.0849 262.029 29.106 262.029 30.3492" stroke="#DD9E5E" stroke-width="3" stroke-linecap="round"/>
<path d="M277.192 30.3491C277.192 36.4514 278.084 54.7365 278.084 48.6342" stroke="#DD9E5E" stroke-width="3" stroke-linecap="round"/>
<path d="M279.422 39.2685C282.984 37.1837 286.159 37.4846 290.125 37.4846" stroke="#DD9E5E" stroke-width="3" stroke-linecap="round"/>
<path d="M290.126 31.2415C287.855 37.0606 289.68 43.9468 289.68 49.9725" stroke="#DD9E5E" stroke-width="3" stroke-linecap="round"/>
<path d="M296.815 54.8778C296.815 53.8301 295.41 45.8715 298.376 47.5192C300.192 48.5279 304.518 47.294 306.404 46.875C307.485 46.6347 309.445 46.4042 310.442 46.4042C311.81 46.4042 313.026 45.9583 314.208 45.9583C315.912 45.9583 315.1 52.391 315.1 53.9858" stroke="#DD9E5E" stroke-width="3" stroke-linecap="round"/>
<path d="M297.707 47.7416C298.617 45.5463 299.937 44.415 299.937 41.9439C299.937 40.0939 299.937 38.2439 299.937 36.3939C299.937 33.6504 298.981 28.5646 302.86 28.5646C305.639 28.5646 309.036 27.9961 311.706 28.5893C312.956 28.8671 311.207 33.8866 311.111 34.61C310.912 36.1007 308.984 45.1295 310.64 45.9577" stroke="#DD9E5E" stroke-width="3" stroke-linecap="round"/>
<path d="M343.634 32.2717C352.436 32.4478 360.841 32.2717 369.433 32.2717" stroke="#DD9E5E" stroke-width="3" stroke-linecap="round"/>
<path d="M342.512 43.4886C352.474 43.4886 361.699 42.3669 371.676 42.3669" stroke="#DD9E5E" stroke-width="3" stroke-linecap="round"/>
<path d="M398.596 41.245C406.516 35.0224 410.098 30.9603 414.05 22.1766C417.934 13.5471 410.935 18.5401 410.935 24.4199C410.935 32.7247 409.813 41.5805 409.813 50.2184" stroke="#DD9E5E" stroke-width="3" stroke-linecap="round"/>
<path d="M422.151 41.7432C422.151 30.669 422.518 25.4684 433.368 19.9329C435.083 20.7908 435.486 22.9862 437.854 24.1703C439.718 25.1024 442.994 27.2918 443.4 29.5294C444.535 35.7673 443.258 44.2586 436.483 46.6037C432.158 48.101 422.151 47.6546 422.151 41.7432Z" stroke="#DD9E5E" stroke-width="3" stroke-linecap="round"/>
<path d="M462.531 19.9326C452.873 20.174 455.801 30.1787 455.801 37.6301C455.801 47.5113 463.711 48.9802 472.377 45.9803C476.228 44.6474 476.333 29.2079 473.748 27.535C467.666 23.5996 466.655 17.6892 459.166 17.6892" stroke="#DD9E5E" stroke-width="3" stroke-linecap="round"/>
<path d="M494.599 46.4538C492.725 40.5972 493.509 33.9231 493.509 27.803C493.509 26.8022 493.262 25.3836 493.54 24.4119C493.715 23.7977 496.459 25.6005 497.082 25.7138C499.28 26.1134 501.897 25.7441 504.137 25.7441C505.108 25.7441 505.966 25.5725 506.71 26.168C507.581 26.8643 507.35 27.2088 508.103 28.0452C510.549 30.7624 509.286 31.7657 506.347 33.1015C501.942 35.104 497.757 36.6439 492.964 36.6439" stroke="#DD9E5E" stroke-width="3" stroke-linecap="round"/>
<path d="M494.6 42.0941C498.204 42.0941 501.391 41.5491 504.954 41.5491" stroke="#DD9E5E" stroke-width="3" stroke-linecap="round"/>
<path d="M807.712 80.4668C806.421 84.4187 805.632 87.8099 805.632 91.9052C805.632 92.7707 803.842 94.3315 804.707 94.3315C806.035 94.3315 807.521 92.7987 808.751 92.2518C813.283 90.2379 818.863 93.5999 820.729 97.7977C823.443 103.905 816.703 110.141 811.178 110.931C809.161 111.219 804.356 111.607 802.859 110.276C801.74 109.281 800.459 109.651 800.124 107.811C799.869 106.407 800.086 104.776 800.086 103.344" stroke="#DD9E5E" stroke-width="3" stroke-linecap="round"/>
<path d="M955.047 80.4668C953.757 84.4187 952.968 87.8099 952.968 91.9052C952.968 92.7707 951.178 94.3315 952.043 94.3315C953.371 94.3315 954.857 92.7987 956.087 92.2518C960.618 90.2379 966.199 93.5999 968.065 97.7977C970.779 103.905 964.039 110.141 958.514 110.931C956.497 111.219 951.692 111.607 950.195 110.276C949.076 109.281 947.795 109.651 947.46 107.811C947.205 106.407 947.422 104.776 947.422 103.344" stroke="#DD9E5E" stroke-width="3" stroke-linecap="round"/>
<path d="M807.712 80.4662C812.136 79.495 814.951 78.3865 819.497 78.3865C821.366 78.3865 827.731 78.5562 828.509 77" stroke="#DD9E5E" stroke-width="3" stroke-linecap="round"/>
<path d="M955.048 80.4662C959.472 79.495 962.287 78.3865 966.833 78.3865C968.702 78.3865 975.067 78.5562 975.845 77" stroke="#DD9E5E" stroke-width="3" stroke-linecap="round"/>
<path d="M838.907 83.9325C837.129 83.6212 835.441 82.829 835.441 84.9723C835.441 85.9839 835.265 86.7054 836.481 86.7054C837.624 86.7054 840.134 85.5855 838.214 84.6257" stroke="#DD9E5E" stroke-width="3" stroke-linecap="round"/>
<path d="M848.612 85.3191C843.545 92.4985 840.863 101.102 836.134 108.196" stroke="#DD9E5E" stroke-width="3" stroke-linecap="round"/>
<path d="M849.306 102.651C847.195 105.587 848.612 106.199 848.612 103.344C848.612 101.589 847.226 101.589 847.226 103.344" stroke="#DD9E5E" stroke-width="3" stroke-linecap="round"/>
<path d="M883.922 86.325C892.724 86.501 901.129 86.325 909.721 86.325" stroke="#DD9E5E" stroke-width="3" stroke-linecap="round"/>
<path d="M882.8 97.5418C892.762 97.5418 901.987 96.4202 911.964 96.4202" stroke="#DD9E5E" stroke-width="3" stroke-linecap="round"/>
<path d="M989.153 110.929C987.279 105.073 988.063 98.3987 988.063 92.2786C988.063 91.2778 987.816 89.8592 988.094 88.8875C988.269 88.2733 991.013 90.0761 991.636 90.1894C993.834 90.589 996.451 90.2197 998.691 90.2197C999.662 90.2197 1000.52 90.0481 1001.26 90.6436C1002.13 91.3399 1001.9 91.6844 1002.66 92.5208C1005.1 95.238 1003.84 96.2413 1000.9 97.5771C996.495 99.5796 992.31 101.12 987.518 101.12" stroke="#DD9E5E" stroke-width="3" stroke-linecap="round"/>
<path d="M989.153 106.57C992.758 106.57 995.944 106.025 999.508 106.025" stroke="#DD9E5E" stroke-width="3" stroke-linecap="round"/>
<path d="M784.371 3.24316C784.371 10.4696 784.371 17.9468 784.371 25.1081" stroke="#DD9E5E" stroke-width="3" stroke-linecap="round"/>
<path d="M784.847 3.71849C787.215 2.79446 799.986 0.902486 799.08 5.88386C798.52 8.96309 796.417 9.68776 793.878 10.8484C791.935 11.7364 787.234 11.778 786.273 13.7003" stroke="#DD9E5E" stroke-width="3" stroke-linecap="round"/>
<path d="M786.273 12.7496C790.485 12.0618 799.497 10.8573 799.106 17.5028C798.967 19.8757 794.161 20.8653 792.452 21.6751C790.434 22.6308 788.036 23.682 785.797 23.682" stroke="#DD9E5E" stroke-width="3" stroke-linecap="round"/>
<path d="M803.87 8.3728C803.83 10.3965 803.546 12.3747 803.87 14.4007C804.087 15.7591 804.192 17.1334 804.192 18.5146C804.192 19.3464 804.192 20.1781 804.192 21.0098C804.192 21.3286 804.192 23.1495 804.192 22.2172" stroke="#DD9E5E" stroke-width="3" stroke-linecap="round"/>
<path d="M804.675 14.3291C806.496 13.9737 808.642 14.014 810.309 14.8478C810.58 14.9832 810.906 15.2355 811.114 15.456C811.392 15.7502 811.73 15.9854 811.991 16.2698C812.746 17.0938 812.885 17.5411 812.885 18.6756C812.885 19.9652 812.577 20.5267 811.365 21.1619C810.585 21.5702 809.301 21.8952 808.413 21.8952C807.517 21.8952 806.754 21.4123 805.882 21.4123C805.425 21.4123 804.514 21.5773 804.514 20.9293" stroke="#DD9E5E" stroke-width="3" stroke-linecap="round"/>
<path d="M817.553 8.69482C817.757 9.9684 818.058 11.1965 818.278 12.4689C818.539 13.9817 818.126 15.5738 818.439 17.0748C818.679 18.2259 818.519 19.5601 818.519 20.7326C818.519 21.4703 818.118 23.7477 818.68 24.31" stroke="#DD9E5E" stroke-width="3" stroke-linecap="round"/>
<path d="M830.432 11.5924C830.791 9.70837 831.283 9.36821 833.097 8.93623C834.279 8.65475 836.101 8.40717 837.265 8.93623C838.269 9.39281 839.24 10.3147 839.572 11.3957C840.116 13.1635 837.549 14.8212 836.263 15.5812C835.399 16.0917 834.559 16.2609 833.571 16.2609C833.139 16.2609 833.875 16.2609 833.974 16.2609C834.542 16.2609 834.932 16.5212 835.44 16.7438C837.126 17.4813 838.964 18.5435 838.964 20.6789C838.964 21.502 837.822 22.1362 837.122 22.253C835.46 22.5299 834.079 22.283 832.525 21.7342C831.591 21.4045 830.791 20.8455 830.11 20.1244C829.683 19.6723 829.788 19.0917 829.788 18.5146" stroke="#DD9E5E" stroke-width="3" stroke-linecap="round"/>
<path d="M845.403 12.2364C845.427 10.8625 845.716 9.60378 847.174 9.33871C848.4 9.11573 849.587 8.85577 850.841 8.85577C851.519 8.85577 852.306 8.54454 852.978 8.71267C854.085 8.98936 854.874 9.70016 855.313 10.6981C856.327 13.0046 856.35 15.5073 856.35 18.0317C856.35 19.1164 856.367 20.2026 856.35 21.2871C856.339 21.9792 856.042 22.5859 856.028 23.2725C856.018 23.7835 855.97 23.9608 855.867 23.3441" stroke="#DD9E5E" stroke-width="3" stroke-linecap="round"/>
<path d="M855.062 15.6169C852.984 15.6664 850.42 16.0072 848.48 16.7349C847.178 17.2233 845.685 17.8408 845.368 19.3553C845.049 20.8757 846.107 21.9922 847.246 22.9237C847.98 23.5248 850.437 22.6369 851.127 22.3782C852.944 21.6968 853.363 19.983 854.096 18.3536" stroke="#DD9E5E" stroke-width="3" stroke-linecap="round"/>
<path d="M861.179 9.01685C861.179 11.5841 861.16 14.1455 861.34 16.7082C861.533 19.4418 861.907 22.1781 861.975 24.9182C862.019 26.6421 862.145 28.3631 862.145 30.0875C862.145 30.5184 861.892 32.5443 862.467 31.3932" stroke="#DD9E5E" stroke-width="3" stroke-linecap="round"/>
<path d="M862.789 14.0073C863.734 11.1741 865.71 10.0424 868.388 9.01683C870.086 8.36652 872.331 9.26107 873.262 10.7161C873.895 11.7055 874.295 13.076 874.371 14.2487C874.494 16.1496 873.503 17.773 872.6 19.3912C871.757 20.9016 870.208 21.7344 868.495 21.7344C866.659 21.7344 865.549 19.8034 864.721 18.3538" stroke="#DD9E5E" stroke-width="3" stroke-linecap="round"/>
<path d="M880.497 11.5924C881.514 10.3062 882.144 9.57439 883.717 9.08824C884.473 8.85438 885.19 8.85571 885.971 8.85571C886.383 8.85571 887.66 8.96856 887.741 9.53541C887.867 10.413 888.622 11.161 888.949 11.9948C889.679 13.8606 889.995 15.3767 889.995 17.3877C889.995 18.0477 890.418 22.5693 889.834 22.8611" stroke="#DD9E5E" stroke-width="3" stroke-linecap="round"/>
<path d="M889.673 14.1682C887.917 15.4985 885.949 16.6046 883.726 16.7529C881.511 16.9005 879.27 17.5625 878.503 19.8652C878.272 20.5568 878.245 21.8974 878.646 22.5214C879.117 23.2536 880.421 23.3481 881.177 23.5051C883.643 24.0175 885.158 23.1613 886.731 21.2156C887.348 20.4519 888.024 19.8423 888.707 19.1586" stroke="#DD9E5E" stroke-width="3" stroke-linecap="round"/>
<path d="M906.415 2.4165C904.974 2.69912 903.709 3.47693 902.257 3.7759C901.437 3.94457 900.578 4.2891 899.815 4.63447C899.161 4.9307 898.517 5.08663 897.865 5.41255C897.109 5.79087 896.796 6.4788 896.273 7.07602C895.115 8.40031 894.183 10.5913 894.664 12.3437C895.369 14.9145 896.419 17.3707 897.32 19.874C897.928 21.5637 898.657 23.0221 900.647 23.0221C903.172 23.0221 905.031 21.8203 905.7 19.3553C906.116 17.8196 906.368 16.2537 905.566 14.83C904.788 13.4493 904.04 11.5285 902.239 11.2884C900.217 11.0187 897.096 11.7902 896.273 13.8462" stroke="#DD9E5E" stroke-width="3" stroke-linecap="round"/>
<path d="M919.455 9.6608C917.118 9.34394 913.708 10.4445 913.337 13.1308C913.088 14.9422 913.438 16.2326 913.946 17.9782C914.348 19.3638 914.587 20.7791 915.215 22.0921C915.59 22.874 916.261 24.3538 917.29 24.4621C918.872 24.6287 920.3 22.7041 921.217 21.6897C921.667 21.1904 922.291 20.9287 922.665 20.3482C923.288 19.3828 923.327 18.1512 923.479 17.0481C923.78 14.871 923.668 13.4123 921.887 11.9414C921.173 11.3512 920.394 10.7715 919.616 10.3047" stroke="#DD9E5E" stroke-width="3" stroke-linecap="round"/>
<path d="M933.943 9.33862C933.943 12.4059 934.045 15.4718 933.702 18.5235C933.488 20.4179 933.299 22.244 933.299 24.1489" stroke="#DD9E5E" stroke-width="3" stroke-linecap="round"/>
<path d="M928.631 9.66069C931.273 7.74942 935.452 8.06418 938.54 8.05087C939.923 8.04491 941.306 8.05087 942.69 8.05087C942.966 8.05087 943.162 8.12515 943.28 7.88989" stroke="#DD9E5E" stroke-width="3" stroke-linecap="round"/>
<path d="M944.246 11.5925C946.205 10.2867 948.304 9.15347 950.685 8.85583C951.328 8.77548 951.907 8.51437 952.456 8.94527C953.018 9.38664 953.353 10.0201 953.502 10.7071C953.94 12.7222 954.066 14.8395 954.066 16.9049C954.066 18.1272 954.066 19.3494 954.066 20.5717C954.066 20.8314 954.064 21.5783 954.227 20.9294" stroke="#DD9E5E" stroke-width="3" stroke-linecap="round"/>
<path d="M953.744 14.9731C951.974 15.3523 950.248 15.9439 948.557 16.583C947.174 17.1053 945.386 17.8313 944.854 19.3733C944.496 20.4108 944.644 21.0949 945.569 21.6092C948.067 22.9965 951.051 20.4174 952.939 19.1587" stroke="#DD9E5E" stroke-width="3" stroke-linecap="round"/>
<path d="M960.022 14.8122C961.73 15.5034 963.492 15.4561 965.316 15.4561C967.122 15.4561 969.536 16.0572 970.647 14.3293C971.301 13.3118 972.096 11.6653 970.942 10.6267C969.832 9.62739 967.061 9.52584 965.656 10.0722C964.593 10.4857 963.454 10.9171 962.92 11.9861C962.51 12.8047 962.059 13.8426 961.829 14.7407C961.427 16.3029 961.738 17.473 962.472 18.8367C964.073 21.8083 968.475 21.1221 970.969 20.1246" stroke="#DD9E5E" stroke-width="3" stroke-linecap="round"/>
<path d="M975.154 8.53385C976.015 8.53385 976.683 8.31013 977.506 8.22978C978.423 8.14039 979.376 8.21189 980.297 8.21189C981.264 8.21189 982.236 8.18345 983.203 8.21189C984.628 8.25381 986.092 8.37287 987.55 8.37287" stroke="#DD9E5E" stroke-width="3" stroke-linecap="round"/>
<path d="M980.789 9.66064C980.789 13.0562 981.03 16.3419 981.263 19.713C981.332 20.7163 981.432 21.6852 981.432 22.7001" stroke="#DD9E5E" stroke-width="3" stroke-linecap="round"/>
<path d="M989.804 15.7781C991.529 15.9752 993.256 16.1 994.991 16.1C995.899 16.1 996.92 15.9728 997.817 16.1358C999.266 16.3993 1001.93 16.4506 1002.49 14.848C1003.13 12.9797 1001.35 10.4928 999.695 9.69656C998.765 9.2496 997.352 9.19672 996.332 9.17784C995.308 9.15887 994.667 9.16286 993.828 9.78599C991.202 11.7366 989.608 14.1313 990.841 17.4594C991.741 19.889 992.462 22.0202 995.134 22.8613C997.122 23.4871 1000.27 23.0173 1001.72 21.5734" stroke="#DD9E5E" stroke-width="3" stroke-linecap="round"/>
<path d="M240.262 124.589C238.312 124.589 236.567 125.72 234.983 126.822C233.559 127.812 233.089 129.337 232.153 130.619C230.876 132.369 230.762 134.869 230.352 136.917C229.787 139.743 231.288 141.907 233.408 143.627C235.301 145.163 238.217 145.891 240.612 145.891C242.009 145.891 243.001 145.477 244.049 144.502C245.564 143.092 246.078 142.031 246.231 139.964C246.565 135.434 246.695 130.087 244.152 126.091C243.029 124.326 241.787 123.663 239.706 123.663" stroke="#DD9E5E" stroke-width="3" stroke-linecap="round"/>
<path d="M265.64 124.589C263.343 124.928 259.647 125.478 257.819 127.141C256.743 128.119 255.659 129.964 255.308 131.401C254.712 133.837 253.938 136.548 254.896 138.996C255.508 140.561 256.302 143.795 258.23 144.224C260.898 144.817 263.446 145.488 265.629 143.195C267.47 141.262 267.824 137.352 265.804 135.332C264.241 133.769 261.44 131.693 259.074 132.554C258.256 132.851 257.763 133.661 257.078 134.118C256.202 134.702 255.452 135.085 255.452 136.259" stroke="#DD9E5E" stroke-width="3" stroke-linecap="round"/>
<path d="M271.753 130.516C271.955 131.804 271.786 133.137 272.03 134.406C272.261 135.603 272.308 137.034 272.308 138.255C272.308 140.014 272.679 141.749 272.679 143.493C272.679 144.468 272.996 145.304 273.049 146.262C273.075 146.721 274.228 146.304 274.449 146.262C275.588 146.045 276.663 145.506 277.804 145.253C279.179 144.947 280.711 144.78 282.126 144.78C283.869 144.78 285.611 144.78 287.354 144.78C287.921 144.78 291.862 144.308 292.314 144.872C292.705 145.361 292.87 145.329 292.87 146.035C292.87 146.694 292.87 147.352 292.87 148.011C292.87 148.639 292.849 149.147 292.643 149.74C292.559 149.983 292.314 150.946 292.314 150.152" stroke="#DD9E5E" stroke-width="3" stroke-linecap="round"/>
<path d="M289.721 131.813C288.966 134.476 288.924 137.224 289.803 139.861C290.17 140.962 290.091 142.5 290.091 143.668" stroke="#DD9E5E" stroke-width="3" stroke-linecap="round"/>
<path d="M280.644 132.369C280.644 133.861 280.443 135.522 280.685 137C280.87 138.131 281.2 139.173 281.2 140.334C281.2 141.195 281.2 142.056 281.2 142.917C281.2 143.47 280.992 144.631 281.57 143.668" stroke="#DD9E5E" stroke-width="3" stroke-linecap="round"/>
<path d="M314.093 137.489C318.083 136.763 322.37 137.808 326.225 136.707C327.395 136.373 323.63 131.945 322.754 131.372C320.954 130.195 318.674 130.327 316.877 131.303C313.163 133.319 313.138 138.39 315.94 141.192C317.347 142.599 319.559 144.478 321.705 144.105C322.649 143.941 324.609 143.132 324.609 141.974" stroke="#DD9E5E" stroke-width="3" stroke-linecap="round"/>
<path d="M297.141 137.489C301.132 136.763 305.419 137.808 309.273 136.707C310.444 136.373 306.679 131.945 305.802 131.372C304.003 130.195 301.722 130.327 299.925 131.303C296.211 133.319 296.186 138.39 298.989 141.192C300.395 142.599 302.608 144.478 304.754 144.105C305.698 143.941 307.658 143.132 307.658 141.974" stroke="#DD9E5E" stroke-width="3" stroke-linecap="round"/>
<path d="M337.755 130.993C338.241 134.213 337.291 137.505 337.291 140.737C337.291 142.27 337.446 143.91 337.446 145.376" stroke="#DD9E5E" stroke-width="3" stroke-linecap="round"/>
<path d="M339.456 138.108C339.856 136.766 340.873 135.965 341.862 135.023C342.596 134.324 343.683 133.923 344.25 133.073C345.029 131.905 345.931 130.849 347.189 130.22" stroke="#DD9E5E" stroke-width="3" stroke-linecap="round"/>
<path d="M338.374 137.179C338.99 137.555 339.661 137.854 340.229 138.296C340.786 138.729 341.238 139.209 341.896 139.499C342.784 139.892 343.035 141.007 343.872 141.51C344.845 142.093 345.533 143.094 346.416 143.795C347.144 144.373 347.19 145.686 348.117 145.995" stroke="#DD9E5E" stroke-width="3" stroke-linecap="round"/>
<path d="M360.334 131.148C359.667 131.148 359 131.148 358.333 131.148C357.817 131.148 357.426 131.458 356.923 131.458C355.803 131.458 355.187 132.456 354.526 133.236C353.699 134.214 352.959 135.982 352.756 137.248C352.634 138.016 352.463 138.707 352.842 139.431C353.364 140.426 354.261 141.153 354.827 142.111C355.782 143.727 357.681 143.986 359.424 144.414C360.335 144.637 361.619 144.885 362.345 144.139C363.165 143.297 363.764 142.052 364.201 140.977C364.999 139.016 365.762 137.001 364.235 135.169C363.316 134.067 362.272 132.426 360.953 131.767" stroke="#DD9E5E" stroke-width="3" stroke-linecap="round"/>
<path d="M368.376 145.376C369.944 144.72 371.208 143.318 372.397 142.128C374.036 140.49 373.789 138.816 373.789 136.647C373.789 134.996 373.48 133.403 373.48 131.732C373.48 129.976 374.089 129.911 375.731 129.911C377.429 129.911 379.128 129.911 380.826 129.911C381.264 129.911 381.677 129.545 381.677 130.315C381.677 131.116 381.393 131.92 381.213 132.695C380.926 133.925 381.058 135.255 381.058 136.509C381.058 139.176 380.618 141.965 381.058 144.603" stroke="#DD9E5E" stroke-width="3" stroke-linecap="round"/>
<path d="M386.162 136.87C388.935 136.87 391.788 136.716 394.513 136.716" stroke="#DD9E5E" stroke-width="3" stroke-linecap="round"/>
<path d="M401.472 131.767C401.058 132.854 401.124 134.056 400.974 135.203C400.718 137.159 401.054 139.014 401.172 140.96C401.27 142.584 401.318 145.84 401.318 145.84" stroke="#DD9E5E" stroke-width="3" stroke-linecap="round"/>
<path d="M401.163 131.148C403.237 131.148 405.132 130.945 407.194 131.268C408.503 131.474 410.756 130.702 410.906 132.66C410.942 133.123 411.061 133.556 411.061 134.052C411.061 134.778 409.788 135.092 409.257 135.324C408.005 135.869 406.635 136.387 405.253 136.406C404.223 136.421 403.255 136.403 402.254 136.569C400.227 136.907 406.413 136.761 408.363 137.411C409.536 137.803 410.714 138.465 411.138 139.654C411.739 141.336 410.286 142.27 408.887 142.678C407.645 143.041 406.32 143.211 405.046 143.434C404.346 143.557 403.043 144.016 402.555 143.366" stroke="#DD9E5E" stroke-width="3" stroke-linecap="round"/>
<path d="M422.351 130.993C420.635 131.022 418.709 131.601 417.788 133.159C416.942 134.59 416.492 136.076 416.285 137.712C415.96 140.275 416.7 144.123 419.867 144.44C421.597 144.613 423.117 144.424 424.327 143.056C425.482 141.751 426.342 140.361 426.758 138.649C427.251 136.621 427.308 134.882 426.028 133.159C425.474 132.413 424.72 131.405 423.897 130.993" stroke="#DD9E5E" stroke-width="3" stroke-linecap="round"/>
<path d="M439.208 131.612C439.208 133.251 439.47 134.849 439.508 136.484C439.551 138.288 439.534 140.1 439.517 141.905C439.509 142.809 439.362 143.699 439.362 144.603C439.362 144.926 439.232 145.78 439.517 145.067" stroke="#DD9E5E" stroke-width="3" stroke-linecap="round"/>
<path d="M441.528 130.684C441.528 132.686 442.944 134.212 444.079 135.77C445.673 137.957 447.621 139.961 448.882 142.369C449.117 142.816 449.323 143.2 449.492 143.675C449.551 143.839 449.57 144.364 449.57 144.191C449.57 143.431 450.097 142.571 450.351 141.871C450.932 140.275 451.332 138.569 452.207 137.102C453.052 135.687 453.838 134.224 454.673 132.815C455.073 132.14 455.14 131.603 455.257 132.849C455.392 134.279 455.369 135.574 455.756 136.991C456.246 138.785 456.688 140.584 457.148 142.386C457.378 143.29 457.766 144.09 457.766 145.033C457.766 145.467 457.766 145.488 457.766 145.067" stroke="#DD9E5E" stroke-width="3" stroke-linecap="round"/>
<path d="M461.478 131.457C461.89 132.525 462.336 133.557 462.397 134.714C462.482 136.32 462.387 137.942 462.406 139.551C462.423 140.967 462.589 142.394 462.707 143.804C462.735 144.145 462.556 144.761 463.024 144.448" stroke="#DD9E5E" stroke-width="3" stroke-linecap="round"/>
<path d="M472.304 132.385C469.355 134.886 467.984 138.377 465.843 141.475C465.275 142.296 464.8 143.318 464.116 144.044C463.244 144.97 463.947 144.262 464.416 143.675" stroke="#DD9E5E" stroke-width="3" stroke-linecap="round"/>
<path d="M473.232 132.076C473.232 135.305 473.152 138.519 472.931 141.733C472.902 142.158 472.979 146.044 473.077 145.995" stroke="#DD9E5E" stroke-width="3" stroke-linecap="round"/>
<path d="M479.572 131.303C479.325 132.571 479.418 133.873 479.418 135.16C479.418 136.811 479.297 138.527 479.486 140.17C479.715 142.148 480.81 147.986 480.81 145.995" stroke="#DD9E5E" stroke-width="3" stroke-linecap="round"/>
<path d="M481.428 138.417C483.372 138.125 485.257 138.107 487.219 138.107C488.206 138.107 489.174 138.237 489.625 137.334" stroke="#DD9E5E" stroke-width="3" stroke-linecap="round"/>
<path d="M490.553 132.54C490.553 136.927 491.171 150.072 491.171 145.686" stroke="#DD9E5E" stroke-width="3" stroke-linecap="round"/>
<path d="M495.038 131.457C495.467 132.133 496.006 132.72 496.309 133.468C496.717 134.473 496.904 135.611 497.4 136.569C498.326 138.355 499.63 139.782 500.133 141.793C500.283 142.393 500.713 142.703 500.88 143.245C501.038 143.759 501.155 144.156 501.379 144.603" stroke="#DD9E5E" stroke-width="3" stroke-linecap="round"/>
<path d="M507.255 130.993C506.341 134.09 505.115 137.068 504.162 140.152C503.655 141.795 502.835 143.452 502.152 145.033C501.553 146.418 501.093 147.882 500.451 149.243C500.074 150.039 499.715 150.904 498.715 150.944C497.727 150.983 496.739 150.445 496.739 149.397" stroke="#DD9E5E" stroke-width="3" stroke-linecap="round"/>
<path d="M511.276 131.921C513.589 131.529 515.773 131.377 518.115 131.303C519.209 131.268 520.194 130.684 521.303 130.684C521.613 130.684 522.269 130.815 522.411 130.53" stroke="#DD9E5E" stroke-width="3" stroke-linecap="round"/>
<path d="M515.916 132.849C515.916 136.827 516.071 140.793 516.071 144.758" stroke="#DD9E5E" stroke-width="3" stroke-linecap="round"/>
<path d="M457.986 323.137C458.462 331.046 458.829 338.836 458.829 346.738" stroke="#DD9E5E" stroke-width="3" stroke-linecap="round"/>
<path d="M456.722 325.244C460.919 323.508 466.893 322.294 471.449 322.294C473.161 322.294 474.633 321.451 476.109 321.451" stroke="#DD9E5E" stroke-width="3" stroke-linecap="round"/>
<path d="M475.266 321.873C474 328.678 474.423 335.617 474.423 342.524" stroke="#DD9E5E" stroke-width="3" stroke-linecap="round"/>
<path d="M480.323 329.459C479.094 337.383 479.059 361.5 479.059 353.481" stroke="#DD9E5E" stroke-width="3" stroke-linecap="round"/>
<path d="M480.657 332.788C481.878 332.291 490.948 326.757 491.936 331.204C492.639 334.367 493.281 335.378 491.76 338.418C490.571 340.797 487.175 341.797 484.528 341.936C482.15 342.061 481.355 338.037 481.009 336.306" stroke="#DD9E5E" stroke-width="3" stroke-linecap="round"/>
<path d="M503.528 328.917C500.84 328.985 500.332 331.711 499.384 333.843C498.381 336.1 498.625 340.103 500.362 341.936C502.387 344.074 508.998 344.607 509.158 340.451C509.252 338.025 509.09 336.09 508.259 333.824C507.629 332.106 505.288 328.214 503.177 328.214" stroke="#DD9E5E" stroke-width="3" stroke-linecap="round"/>
<path d="M514.788 329.973C514.788 333.726 514.788 337.48 514.788 341.233C514.788 341.871 514.861 343.344 515.668 343.344C517.458 343.344 519.302 343.486 521.082 343.324C522.299 343.214 523.525 342.35 524.64 342.288C526.165 342.204 526.048 341.559 526.048 340.099C526.048 337.006 526.4 333.882 526.4 330.853C526.4 329.416 526.767 330.447 526.478 331.459C526.125 332.694 526.048 334.676 526.048 335.955C526.048 338.066 526.048 340.177 526.048 342.288C526.048 345.511 528.036 342.621 529.371 343.383C529.844 343.653 529.566 345.848 529.566 346.315C529.566 346.943 529.566 349.011 529.566 348.974" stroke="#DD9E5E" stroke-width="3" stroke-linecap="round"/>
<path d="M533.437 335.955C535.735 336.705 538.062 336.8 540.474 336.658C541.033 336.626 541.898 336.212 542.253 335.798C542.861 335.089 542.655 334.845 543.113 334.019C543.553 333.227 543.152 332.651 542.585 332.084C542.07 331.569 540.454 329.697 539.77 329.621C537.298 329.346 536.227 328.766 534.688 331.185C533.262 333.425 531.752 339.548 533.789 341.584C535.089 342.885 537.05 343.344 538.871 343.344C539.859 343.344 540.899 343.447 541.882 343.344C543.164 343.209 543.338 341.536 543.993 340.881" stroke="#DD9E5E" stroke-width="3" stroke-linecap="round"/>
<path d="M549.623 328.566V342.992" stroke="#DD9E5E" stroke-width="3" stroke-linecap="round"/>
<path d="M550.678 337.362C551.595 337.362 557.581 337.983 558.067 337.01" stroke="#DD9E5E" stroke-width="3" stroke-linecap="round"/>
<path d="M560.53 329.973C560.53 332.729 560.53 335.486 560.53 338.242C560.53 339.584 560.429 340.779 560.179 342.093C560.089 342.563 559.827 343.738 559.827 342.64" stroke="#DD9E5E" stroke-width="3" stroke-linecap="round"/>
<path d="M564.753 329.269C568.295 329.269 571.782 329.621 575.309 329.621" stroke="#DD9E5E" stroke-width="3" stroke-linecap="round"/>
<path d="M571.438 331.732C571.924 334.767 571.79 337.816 571.79 340.881C571.79 341.453 571.79 345.623 571.79 343.344" stroke="#DD9E5E" stroke-width="3" stroke-linecap="round"/>
<path d="M588.489 328.697C588.215 333.53 587.877 338.368 587.673 343.205C587.615 344.593 587.809 343.415 587.902 343.091" stroke="#DD9E5E" stroke-width="3" stroke-linecap="round"/>
<path d="M589.371 328.697C591.736 328.649 593.979 328.109 596.356 328.109C597.759 328.109 598.184 328.991 598.184 330.459C598.184 332.145 597.883 332.786 596.356 333.691C595.36 334.281 593.898 334.536 592.798 334.866C591.854 335.149 590.855 335.747 589.844 335.747C587.222 335.747 595.128 335.953 597.662 336.628C598.249 336.785 598.917 338.308 599.032 338.799C599.271 339.812 599.173 340.015 598.478 340.578C596.513 342.168 593.671 342.21 591.264 342.21C589.648 342.21 586.704 342.535 588.489 340.154" stroke="#DD9E5E" stroke-width="3" stroke-linecap="round"/>
<path d="M603.765 332.222C605.26 330.309 607.808 329.578 610.228 329.578C610.787 329.578 612.331 329.29 612.595 329.904C613.038 330.939 613.942 331.764 614.406 332.809C615.143 334.466 614.635 337.161 614.635 338.979C614.635 339.946 614.929 340.841 614.929 341.786C614.929 343.227 615.258 343.456 614.635 342.21" stroke="#DD9E5E" stroke-width="3" stroke-linecap="round"/>
<path d="M613.46 334.572C612.386 335.211 611.047 336.086 609.771 336.318C608.63 336.526 607.607 336.421 606.475 336.857C604.864 337.476 603.765 339.561 603.765 341.182C603.765 344.09 606.349 345.073 608.759 344.136C611.151 343.206 611.929 340.747 613.166 338.685" stroke="#DD9E5E" stroke-width="3" stroke-linecap="round"/>
<path d="M619.629 329.284C619.685 332.1 619.519 335.51 620.07 338.26C620.403 339.928 621.098 341.688 621.098 343.385C621.098 344.537 626.007 343.973 626.973 343.973C628.991 343.973 631.01 343.973 633.028 343.973C634.065 343.973 636.7 344.485 637.484 343.614C638.528 342.453 637.843 339.149 637.843 337.738C637.843 334.618 638.136 331.365 638.136 328.403" stroke="#DD9E5E" stroke-width="3" stroke-linecap="round"/>
<path d="M629.617 329.872C629.617 334.256 629.323 338.673 629.323 343.091" stroke="#DD9E5E" stroke-width="3" stroke-linecap="round"/>
<path d="M643.13 328.697C643.13 333.484 644.012 338.281 644.012 343.091C644.012 344.523 645.453 342.605 645.709 342.21C646.568 340.882 647.375 339.505 648.124 338.113C648.981 336.523 650.39 335.019 651.813 333.984C653.157 333.007 654.314 331.613 655.469 330.459C655.691 330.237 655.939 329.094 656.04 330.051C656.188 331.454 656.056 332.935 656.056 334.343C656.056 337.339 656.35 340.139 656.35 343.091" stroke="#DD9E5E" stroke-width="3" stroke-linecap="round"/>
<path d="M660.757 328.697C662.046 330.281 664.4 331.609 665.31 333.429C666.15 335.109 667.153 336.582 668.248 338.097C669.191 339.404 670.149 340.691 671.267 341.851C672.554 343.185 672.214 342.985 672.214 341.035" stroke="#DD9E5E" stroke-width="3" stroke-linecap="round"/>
<path d="M671.626 329.578C669.806 330.661 668.806 331.8 667.513 333.462C666.455 334.822 666.186 336.452 665.294 337.869C664.182 339.634 663.007 341.432 662.225 343.385" stroke="#DD9E5E" stroke-width="3" stroke-linecap="round"/>
<path d="M683.671 329.872C683.671 332.722 683.964 335.552 683.964 338.375C683.964 339.372 683.706 340.795 684.258 341.623" stroke="#DD9E5E" stroke-width="3" stroke-linecap="round"/>
<path d="M685.128 330.203C685.644 332.664 686.805 335.022 688.196 337.108C689.199 338.612 689.869 340.429 691.026 341.819C691.976 342.958 692.346 343.146 693.078 341.401C694.027 339.138 694.773 336.88 695.813 334.638C696.319 333.55 696.882 332.523 697.343 331.419C697.638 330.71 698.14 330.159 698.463 329.481C698.583 329.231 698.941 328.925 698.976 328.664C699.122 327.573 699.031 330.887 699.318 331.951C699.575 332.902 699.628 333.912 699.907 334.857C700.263 336.063 700.561 337.22 700.724 338.485C700.848 339.45 701.178 340.492 701.199 341.448C701.215 342.215 701.37 342.945 701.37 343.709C701.37 344.177 701.184 345.811 701.541 344.564" stroke="#DD9E5E" stroke-width="3" stroke-linecap="round"/>
<path d="M705.986 328.322C705.986 330.535 705.815 332.761 705.815 334.99C705.815 337.28 706.335 339.654 706.669 341.914C706.694 342.083 707.094 343.505 707.116 343.49C707.507 343.23 707.685 342.439 707.866 342.037C708.187 341.325 708.538 340.638 709.025 340.024C710.895 337.666 713.058 335.488 714.771 333.014C715.367 332.154 715.897 331.246 716.49 330.383C716.739 330.021 717.03 329.7 717.108 329.272C717.276 328.348 717.269 329.808 717.269 330.032C717.269 331.665 717.255 333.299 717.269 334.933C717.281 336.263 717.59 337.562 717.611 338.884C717.626 339.862 717.559 340.851 717.62 341.828C717.646 342.232 718.158 344.632 718.295 344.564" stroke="#DD9E5E" stroke-width="3" stroke-linecap="round"/>
<path d="M723.082 329.006C723.34 330.973 723.345 332.929 723.433 334.904C723.503 336.481 723.766 338.001 723.766 339.596C723.766 340.548 723.596 341.672 723.804 342.607C724.107 343.974 724.153 343.001 724.278 341.999" stroke="#DD9E5E" stroke-width="3" stroke-linecap="round"/>
<path d="M724.962 336.529C727.713 334.528 731.383 337.206 734.194 335.332" stroke="#DD9E5E" stroke-width="3" stroke-linecap="round"/>
<path d="M734.365 329.348C733.941 332.053 734.023 334.953 734.023 337.687C734.023 338.756 734.212 339.885 734.403 340.935C734.501 341.473 734.878 341.988 734.878 342.512" stroke="#DD9E5E" stroke-width="3" stroke-linecap="round"/>
<path d="M739.836 329.006C740.933 332.236 742.674 335.121 744.623 337.906C745.202 338.734 745.309 339.753 745.82 340.594C746.278 341.349 746.838 339.524 747.054 339.131C747.94 337.521 748.787 335.958 749.476 334.249C749.748 333.576 749.974 332.877 750.17 332.178C750.278 331.792 750.19 331.344 750.36 330.982C750.531 330.615 750.778 330.275 750.778 329.861C750.778 329.03 750.274 331.446 749.961 332.216C749.471 333.421 749.09 334.832 748.811 336.101C748.471 337.653 747.792 339.075 747.263 340.565C746.518 342.667 745.452 344.638 744.148 346.444C743.362 347.533 743.333 348.213 741.774 347.964C739.851 347.656 738.957 346.814 738.639 344.906" stroke="#DD9E5E" stroke-width="3" stroke-linecap="round"/>
<path d="M753.855 329.348C755.936 328.952 757.988 329.609 760.047 329.215C761.268 328.981 762.503 329.015 763.733 328.873C764.822 328.748 765.787 328.363 766.848 328.151" stroke="#DD9E5E" stroke-width="3" stroke-linecap="round"/>
<path d="M760.522 330.032C760.122 332.583 760.81 334.903 760.864 337.421C760.901 339.113 761.035 340.805 761.035 342.512" stroke="#DD9E5E" stroke-width="3" stroke-linecap="round"/>
<path d="M624.791 282.317C624.568 290.426 623.74 298.575 623.74 306.604C623.74 308.634 623.215 309.983 623.215 307.013" stroke="#DD9E5E" stroke-width="3" stroke-linecap="round"/>
<path d="M624.791 282.842C623.394 283.783 620.915 284.861 619.829 286.258C619.274 286.971 617.24 287.897 618.048 288.301C619.061 288.808 623.41 283.573 624.791 282.959C628.853 281.154 633.758 288.165 635.3 291.25" stroke="#DD9E5E" stroke-width="3" stroke-linecap="round"/>
</svg>
